<svg width="194" height="72" viewBox="0 0 194 72" fill="none" xmlns="http://www.w3.org/2000/svg">
<path d="M189.385 54.0064L189.391 50.1547L193.243 50.1608L193.236 54.0126L189.385 54.0064Z" fill="white"/>
<path d="M182.001 52.6363V16.8315H185.587V52.6363H182.001ZM144.992 52.6363L158.566 16.8315L162.664 16.8315L176.238 52.6363H172.345L160.615 20.7245L148.782 52.6363L144.992 52.6363Z" fill="url(#paint0_linear_33_143)"/>
<path d="M1.84402 53.6052V25.9449H6.41566V53.6052H1.84402ZM11.0875 53.6052V31.3233H28.6057C29.5278 31.3233 30.3729 31.5666 31.1413 32.0532C31.9352 32.5142 32.5627 33.1289 33.0237 33.8972C33.4847 34.6656 33.7152 35.5236 33.7152 36.4712V53.6052H29.1436V36.6249C29.1436 36.42 29.0668 36.2535 28.9131 36.1254C28.785 35.9718 28.6314 35.8949 28.4521 35.8949H16.3891C16.2098 35.8949 16.0433 35.9718 15.8897 36.1254C15.736 36.2535 15.6592 36.42 15.6592 36.6249V53.6052H11.0875ZM38.1827 53.6052V29.1719C38.1827 28.2243 38.4132 27.3663 38.8742 26.598C39.3352 25.804 39.9499 25.1766 40.7182 24.7156C41.5122 24.2545 42.383 24.024 43.3306 24.024H51.6671V28.6341H43.4843C43.2794 28.6341 43.1001 28.7109 42.9464 28.8646C42.8184 28.9927 42.7544 29.1463 42.7544 29.3256V31.3233H51.6671V35.8949H42.7544V53.6052H38.1827ZM54.8107 53.6052V31.3233H59.3824V53.6052H54.8107ZM54.8107 28.6341V24.024H59.3824V28.6341H54.8107ZM64.2382 53.6052V31.3233H81.7564C82.6784 31.3233 83.5236 31.5666 84.292 32.0532C85.0859 32.5142 85.7134 33.1289 86.1744 33.8972C86.6354 34.6656 86.8659 35.5236 86.8659 36.4712V53.6052H82.2943V36.6249C82.2943 36.42 82.2174 36.2535 82.0638 36.1254C81.9357 35.9718 81.782 35.8949 81.6028 35.8949H69.5398C69.3605 35.8949 69.194 35.9718 69.0404 36.1254C68.8867 36.2535 68.8099 36.42 68.8099 36.6249V53.6052H64.2382ZM91.295 53.6052V31.3233H95.8666V53.6052H91.295ZM91.295 28.6341V24.024H95.8666V28.6341H91.295ZM105.682 53.6052C104.734 53.6052 103.863 53.3747 103.07 52.9137C102.301 52.4271 101.687 51.7996 101.226 51.0313C100.764 50.2629 100.534 49.405 100.534 48.4573V24.3698H105.106V31.3233H114.018V35.8949H105.106V48.3037C105.106 48.5086 105.17 48.6878 105.298 48.8415C105.451 48.9696 105.631 49.0336 105.836 49.0336H114.018V53.6052H105.682ZM121.069 61.9802V57.3701H134.63C134.809 57.3701 134.963 57.2933 135.091 57.1396C135.245 57.0115 135.322 56.8579 135.322 56.6786V53.6052H122.413C121.491 53.6052 120.633 53.3747 119.839 52.9137C119.071 52.4271 118.444 51.7996 117.957 51.0313C117.496 50.2629 117.266 49.405 117.266 48.4573V31.4001H121.837V48.3037C121.837 48.5086 121.901 48.6878 122.029 48.8415C122.183 48.9696 122.362 49.0336 122.567 49.0336H134.63C134.809 49.0336 134.963 48.9696 135.091 48.8415C135.245 48.6878 135.322 48.5086 135.322 48.3037V31.4001H139.893V56.8323C139.893 57.8055 139.663 58.6763 139.202 59.4446C138.766 60.213 138.152 60.8276 137.358 61.2886C136.589 61.7497 135.731 61.9802 134.784 61.9802H121.069Z" fill="white"/>
<defs>
<linearGradient id="paint0_linear_33_143" x1="193.948" y1="53.0236" x2="161.999" y2="60.0674" gradientUnits="userSpaceOnUse">
<stop stop-color="#D0A0E1"/>
<stop offset="0.614583" stop-color="#550B70"/>
<stop offset="1" stop-color="#BE58E2"/>
</linearGradient>
</defs>
</svg>
