<svg width="642" height="238" viewBox="0 0 642 238" fill="none" xmlns="http://www.w3.org/2000/svg">
<path d="M627.656 177.019L627.677 164.225L640.471 164.245L640.45 177.039L627.656 177.019Z" fill="white"/>
<path d="M604.556 175.216V56.2825H616.467V175.216H604.556ZM481.622 175.216L526.711 56.2825H540.323L585.412 175.216H572.481L533.517 69.2137L494.213 175.216L481.622 175.216Z" fill="url(#paint0_linear_33_143)"/>
<path d="M6.12532 177.549V85.6695H21.311V177.549H6.12532ZM36.8297 177.549V103.535H95.0202C98.0829 103.535 100.89 104.343 103.443 105.96C106.08 107.491 108.164 109.533 109.695 112.085C111.227 114.637 111.992 117.487 111.992 120.635V177.549H96.8068V121.145C96.8068 120.465 96.5516 119.912 96.0411 119.486C95.6157 118.976 95.1053 118.721 94.5098 118.721H54.44C53.8445 118.721 53.2915 118.976 52.781 119.486C52.2706 119.912 52.0154 120.465 52.0154 121.145V177.549H36.8297ZM126.832 177.549V96.3888C126.832 93.2411 127.598 90.3911 129.129 87.8389C130.661 85.2016 132.702 83.1173 135.255 81.586C137.892 80.0546 140.784 79.289 143.932 79.289H171.624V94.6023H144.443C143.762 94.6023 143.166 94.8575 142.656 95.3679C142.231 95.7933 142.018 96.3037 142.018 96.8993V103.535H171.624V118.721H142.018V177.549H126.832ZM182.066 177.549V103.535H197.251V177.549H182.066ZM182.066 94.6023V79.289H197.251V94.6023H182.066ZM213.381 177.549V103.535H271.572C274.634 103.535 277.442 104.343 279.994 105.96C282.631 107.491 284.716 109.533 286.247 112.085C287.778 114.637 288.544 117.487 288.544 120.635V177.549H273.358V121.145C273.358 120.465 273.103 119.912 272.593 119.486C272.167 118.976 271.657 118.721 271.061 118.721H230.992C230.396 118.721 229.843 118.976 229.333 119.486C228.822 119.912 228.567 120.465 228.567 121.145V177.549H213.381ZM303.256 177.549V103.535H318.442V177.549H303.256ZM303.256 94.6023V79.289H318.442V94.6023H303.256ZM351.045 177.549C347.898 177.549 345.005 176.784 342.368 175.252C339.816 173.636 337.774 171.552 336.243 168.999C334.711 166.447 333.946 163.597 333.946 160.449V80.4375H349.131V103.535H378.737V118.721H349.131V159.939C349.131 160.62 349.344 161.215 349.769 161.726C350.28 162.151 350.875 162.364 351.556 162.364H378.737V177.549H351.045ZM402.157 205.368V190.055H447.203C447.799 190.055 448.309 189.8 448.735 189.29C449.245 188.864 449.5 188.354 449.5 187.758V177.549H406.623C403.56 177.549 400.71 176.784 398.073 175.252C395.521 173.636 393.437 171.552 391.82 168.999C390.289 166.447 389.523 163.597 389.523 160.449V103.79H404.709V159.939C404.709 160.62 404.921 161.215 405.347 161.726C405.857 162.151 406.453 162.364 407.133 162.364H447.203C447.799 162.364 448.309 162.151 448.735 161.726C449.245 161.215 449.5 160.62 449.5 159.939V103.79H464.686V188.269C464.686 191.501 463.92 194.394 462.389 196.946C460.943 199.498 458.901 201.54 456.264 203.071C453.711 204.603 450.861 205.368 447.714 205.368H402.157Z" fill="white"/>
<defs>
<linearGradient id="paint0_linear_33_143" x1="644.239" y1="176.13" x2="538.116" y2="199.527" gradientUnits="userSpaceOnUse">
<stop stop-color="#D0A0E1"/>
<stop offset="0.614583" stop-color="#550B70"/>
<stop offset="1" stop-color="#BE58E2"/>
</linearGradient>
</defs>
</svg>
